<?xml version="1.0" encoding="utf-8"?>
<svg width="570px" height="172px" viewBox="0 0 570 172" version="1.1" xmlns:xlink="http://www.w3.org/1999/xlink" xmlns="http://www.w3.org/2000/svg">
  <defs>
    <filter filterUnits="userSpaceOnUse" color-interpolation-filters="sRGB" id="filter_1">
      <feFlood flood-opacity="0" result="BackgroundImageFix" />
      <feColorMatrix in="SourceAlpha" type="matrix" values="0 0 0 0 0 0 0 0 0 0 0 0 0 0 0 0 0 0 127 0" />
      <feOffset dx="0" dy="2" />
      <feGaussianBlur stdDeviation="2" />
      <feColorMatrix type="matrix" values="0 0 0 0 0.39215687 0 0 0 0 0.39215687 0 0 0 0 0.39215687 0 0 0 0.49803922 0" />
      <feBlend mode="normal" in2="BackgroundImageFix" result="effect0_dropShadow" />
      <feBlend mode="normal" in="SourceGraphic" in2="effect0_dropShadow" result="shape" />
    </filter>
    <path d="M15.999 0L98.001 0Q98.3937 0 98.786 0.0192715Q99.1783 0.038543 99.5692 0.0770395Q99.96 0.115536 100.349 0.173165Q100.737 0.230794 101.122 0.307416Q101.507 0.384039 101.888 0.47947Q102.269 0.574901 102.645 0.688911Q103.021 0.802922 103.391 0.935236Q103.761 1.06755 104.124 1.21785Q104.486 1.36815 104.841 1.53607Q105.196 1.704 105.543 1.88914Q105.889 2.07428 106.226 2.2762Q106.563 2.47812 106.89 2.69632Q107.216 2.91452 107.532 3.14848Q107.847 3.38245 108.151 3.63161Q108.454 3.88077 108.745 4.14452Q109.036 4.40828 109.314 4.686Q109.592 4.96372 109.855 5.25473Q110.119 5.54574 110.368 5.84934Q110.618 6.15294 110.852 6.46841Q111.085 6.78387 111.304 7.11043Q111.522 7.43699 111.724 7.77387Q111.926 8.11075 112.111 8.45712Q112.296 8.8035 112.464 9.15855Q112.632 9.51359 112.782 9.87645Q112.932 10.2393 113.065 10.6091Q113.197 10.9789 113.311 11.3547Q113.425 11.7306 113.521 12.1116Q113.616 12.4925 113.693 12.8777Q113.769 13.263 113.827 13.6515Q113.884 14.04 113.923 14.4308Q113.961 14.8217 113.981 15.214Q114 15.6062 114 15.999L114 98.001Q114 98.3937 113.981 98.786Q113.961 99.1783 113.923 99.5692Q113.884 99.96 113.827 100.349Q113.769 100.737 113.693 101.122Q113.616 101.507 113.521 101.888Q113.425 102.269 113.311 102.645Q113.197 103.021 113.065 103.391Q112.932 103.761 112.782 104.124Q112.632 104.486 112.464 104.841Q112.296 105.196 112.111 105.543Q111.926 105.889 111.724 106.226Q111.522 106.563 111.304 106.89Q111.085 107.216 110.852 107.532Q110.618 107.847 110.368 108.151Q110.119 108.454 109.855 108.745Q109.592 109.036 109.314 109.314Q109.036 109.592 108.745 109.855Q108.454 110.119 108.151 110.368Q107.847 110.618 107.532 110.852Q107.216 111.085 106.89 111.304Q106.563 111.522 106.226 111.724Q105.889 111.926 105.543 112.111Q105.196 112.296 104.841 112.464Q104.486 112.632 104.124 112.782Q103.761 112.932 103.391 113.065Q103.021 113.197 102.645 113.311Q102.269 113.425 101.888 113.521Q101.507 113.616 101.122 113.693Q100.737 113.769 100.349 113.827Q99.96 113.884 99.5692 113.923Q99.1783 113.961 98.786 113.981Q98.3937 114 98.001 114L15.999 114Q15.6062 114 15.214 113.981Q14.8217 113.961 14.4308 113.923Q14.04 113.884 13.6515 113.827Q13.263 113.769 12.8777 113.693Q12.4925 113.616 12.1116 113.521Q11.7306 113.425 11.3547 113.311Q10.9789 113.197 10.6091 113.065Q10.2393 112.932 9.87645 112.782Q9.51359 112.632 9.15855 112.464Q8.8035 112.296 8.45712 112.111Q8.11075 111.926 7.77387 111.724Q7.43699 111.522 7.11043 111.304Q6.78387 111.085 6.46841 110.852Q6.15294 110.618 5.84934 110.368Q5.54574 110.119 5.25473 109.855Q4.96372 109.592 4.686 109.314Q4.40828 109.036 4.14452 108.745Q3.88077 108.454 3.63161 108.151Q3.38245 107.847 3.14848 107.532Q2.91452 107.216 2.69632 106.89Q2.47812 106.563 2.2762 106.226Q2.07428 105.889 1.88914 105.543Q1.704 105.196 1.53607 104.841Q1.36815 104.486 1.21785 104.124Q1.06755 103.761 0.935236 103.391Q0.802922 103.021 0.688911 102.645Q0.574901 102.269 0.47947 101.888Q0.384039 101.507 0.307416 101.122Q0.230794 100.737 0.173165 100.349Q0.115536 99.96 0.0770395 99.5692Q0.038543 99.1783 0.0192715 98.786Q0 98.3937 0 98.001L0 15.999Q0 15.6062 0.0192715 15.214Q0.038543 14.8217 0.0770395 14.4308Q0.115536 14.04 0.173165 13.6515Q0.230794 13.263 0.307416 12.8777Q0.384039 12.4925 0.47947 12.1116Q0.574901 11.7306 0.688911 11.3547Q0.802922 10.9789 0.935236 10.6091Q1.06755 10.2393 1.21785 9.87645Q1.36815 9.51359 1.53607 9.15855Q1.704 8.8035 1.88914 8.45712Q2.07428 8.11075 2.2762 7.77387Q2.47812 7.43699 2.69632 7.11043Q2.91452 6.78387 3.14848 6.46841Q3.38245 6.15294 3.63161 5.84934Q3.88077 5.54574 4.14452 5.25473Q4.40828 4.96372 4.686 4.686Q4.96372 4.40828 5.25473 4.14452Q5.54574 3.88077 5.84934 3.63161Q6.15294 3.38245 6.46841 3.14848Q6.78387 2.91452 7.11043 2.69632Q7.43699 2.47812 7.77387 2.2762Q8.11075 2.07428 8.45712 1.88914Q8.8035 1.704 9.15855 1.53607Q9.51359 1.36815 9.87645 1.21785Q10.2393 1.06755 10.6091 0.935236Q10.9789 0.802922 11.3547 0.688911Q11.7306 0.574901 12.1116 0.47947Q12.4925 0.384039 12.8777 0.307416Q13.263 0.230794 13.6515 0.173165Q14.04 0.115536 14.4308 0.0770395Q14.8217 0.038543 15.214 0.0192715Q15.6062 0 15.999 0Z" id="path_1" />
    <rect width="570" height="172" id="artboard_1" />
    <clipPath id="clip_1">
      <use xlink:href="#artboard_1" clip-rule="evenodd" />
    </clipPath>
    <clipPath id="clip_2">
      <use xlink:href="#path_1" />
    </clipPath>
  </defs>
  <g id="Artboard" clip-path="url(#clip_1)">
    <use xlink:href="#artboard_1" stroke="none" fill="#FFFFFF" fill-opacity="0" />
    <g filter="url(#filter_1)">
      <g id="Group-4" transform="translate(15 13)">
        <path d="M15.999 0L524.001 0Q524.394 0 524.786 0.0192715Q525.178 0.038543 525.569 0.0770395Q525.96 0.115536 526.349 0.173165Q526.737 0.230794 527.122 0.307416Q527.508 0.384039 527.888 0.47947Q528.269 0.574901 528.645 0.688911Q529.021 0.802922 529.391 0.935236Q529.761 1.06755 530.123 1.21785Q530.486 1.36815 530.841 1.53607Q531.196 1.704 531.543 1.88914Q531.889 2.07428 532.226 2.2762Q532.563 2.47812 532.889 2.69632Q533.216 2.91452 533.531 3.14848Q533.847 3.38245 534.151 3.63161Q534.454 3.88077 534.745 4.14452Q535.036 4.40828 535.314 4.686Q535.592 4.96372 535.855 5.25473Q536.119 5.54574 536.368 5.84934Q536.617 6.15294 536.851 6.46841Q537.085 6.78387 537.304 7.11043Q537.522 7.43699 537.724 7.77387Q537.926 8.11075 538.111 8.45712Q538.296 8.8035 538.464 9.15855Q538.632 9.51359 538.782 9.87645Q538.932 10.2393 539.065 10.6091Q539.197 10.9789 539.311 11.3547Q539.425 11.7306 539.521 12.1116Q539.616 12.4925 539.693 12.8777Q539.769 13.263 539.827 13.6515Q539.884 14.04 539.923 14.4308Q539.961 14.8217 539.981 15.214Q540 15.6062 540 15.999L540 130.001Q540 130.394 539.981 130.786Q539.961 131.178 539.923 131.569Q539.884 131.96 539.827 132.349Q539.769 132.737 539.693 133.122Q539.616 133.507 539.521 133.888Q539.425 134.269 539.311 134.645Q539.197 135.021 539.065 135.391Q538.932 135.761 538.782 136.124Q538.632 136.486 538.464 136.841Q538.296 137.196 538.111 137.543Q537.926 137.889 537.724 138.226Q537.522 138.563 537.304 138.89Q537.085 139.216 536.851 139.532Q536.617 139.847 536.368 140.151Q536.119 140.454 535.855 140.745Q535.592 141.036 535.314 141.314Q535.036 141.592 534.745 141.855Q534.454 142.119 534.151 142.368Q533.847 142.618 533.531 142.852Q533.216 143.085 532.889 143.304Q532.563 143.522 532.226 143.724Q531.889 143.926 531.543 144.111Q531.196 144.296 530.841 144.464Q530.486 144.632 530.123 144.782Q529.761 144.932 529.391 145.065Q529.021 145.197 528.645 145.311Q528.269 145.425 527.888 145.521Q527.508 145.616 527.122 145.693Q526.737 145.769 526.349 145.827Q525.96 145.884 525.569 145.923Q525.178 145.961 524.786 145.981Q524.394 146 524.001 146L15.999 146Q15.6062 146 15.214 145.981Q14.8217 145.961 14.4308 145.923Q14.04 145.884 13.6515 145.827Q13.263 145.769 12.8777 145.693Q12.4925 145.616 12.1116 145.521Q11.7306 145.425 11.3547 145.311Q10.9789 145.197 10.6091 145.065Q10.2393 144.932 9.87645 144.782Q9.51359 144.632 9.15855 144.464Q8.8035 144.296 8.45712 144.111Q8.11075 143.926 7.77387 143.724Q7.43699 143.522 7.11043 143.304Q6.78387 143.085 6.46841 142.852Q6.15294 142.618 5.84934 142.368Q5.54574 142.119 5.25473 141.855Q4.96372 141.592 4.686 141.314Q4.40828 141.036 4.14452 140.745Q3.88077 140.454 3.63161 140.151Q3.38245 139.847 3.14848 139.532Q2.91452 139.216 2.69632 138.89Q2.47812 138.563 2.2762 138.226Q2.07428 137.889 1.88914 137.543Q1.704 137.196 1.53607 136.841Q1.36815 136.486 1.21785 136.124Q1.06755 135.761 0.935236 135.391Q0.802922 135.021 0.688911 134.645Q0.574901 134.269 0.47947 133.888Q0.384039 133.507 0.307416 133.122Q0.230794 132.737 0.173165 132.349Q0.115536 131.96 0.0770395 131.569Q0.038543 131.178 0.0192715 130.786Q0 130.394 0 130.001L0 15.999Q0 15.6062 0.0192715 15.214Q0.038543 14.8217 0.0770395 14.4308Q0.115536 14.04 0.173165 13.6515Q0.230794 13.263 0.307416 12.8777Q0.384039 12.4925 0.47947 12.1116Q0.574901 11.7306 0.688911 11.3547Q0.802922 10.9789 0.935236 10.6091Q1.06755 10.2393 1.21785 9.87645Q1.36815 9.51359 1.53607 9.15855Q1.704 8.8035 1.88914 8.45712Q2.07428 8.11075 2.2762 7.77387Q2.47812 7.43699 2.69632 7.11043Q2.91452 6.78387 3.14848 6.46841Q3.38245 6.15294 3.63161 5.84934Q3.88077 5.54574 4.14452 5.25473Q4.40828 4.96372 4.686 4.686Q4.96372 4.40828 5.25473 4.14452Q5.54574 3.88077 5.84934 3.63161Q6.15294 3.38245 6.46841 3.14848Q6.78387 2.91452 7.11043 2.69632Q7.43699 2.47812 7.77387 2.2762Q8.11075 2.07428 8.45712 1.88914Q8.8035 1.704 9.15855 1.53607Q9.51359 1.36815 9.87645 1.21785Q10.2393 1.06755 10.6091 0.935236Q10.9789 0.802922 11.3547 0.688911Q11.7306 0.574901 12.1116 0.47947Q12.4925 0.384039 12.8777 0.307416Q13.263 0.230794 13.6515 0.173165Q14.04 0.115536 14.4308 0.0770395Q14.8217 0.038543 15.214 0.0192715Q15.6062 0 15.999 0Z" id="Rectangle" fill="#FFFFFF" fill-rule="evenodd" stroke="none" />
        <g id="Group-2-Copy-2" transform="translate(16 16)">
          <g id="Group-Copy">
            <g id="Rectangle">
              <use stroke="none" fill="#FFFFFF" xlink:href="#path_1" fill-rule="evenodd" />
              <g clip-path="url(#clip_2)">
                <use xlink:href="#path_1" fill="none" stroke="#354580" stroke-width="16" />
              </g>
            </g>
            <g id="GG" fill="#354580" transform="translate(14.043457 14.777771)">
              <path d="M26.0268 59.6128Q33.3393 59.6128 38.2612 56.7769L38.2612 39.8785L23.9643 39.8785L23.9643 45.9253L30.6909 45.9253L30.6909 52.4878Q29.0971 53.2613 26.3784 53.2613Q21.855 53.2613 19.1948 50.4253Q16.5346 47.5894 16.5346 42.4097Q16.5346 37.3004 19.4995 34.2418Q22.4643 31.1832 27.1753 31.1832Q32.8003 31.1832 36.6909 33.4332L36.6909 26.3316Q32.6128 24.855 27.269 24.855Q18.7846 24.855 13.6753 29.8472Q8.5659 34.8394 8.5659 42.7613Q8.5659 50.6363 13.2417 55.1246Q17.9175 59.6128 26.0268 59.6128ZM62.1518 59.6128Q69.4643 59.6128 74.3862 56.7769L74.3862 39.8785L60.0893 39.8785L60.0893 45.9253L66.8159 45.9253L66.8159 52.4878Q65.2222 53.2613 62.5034 53.2613Q57.98 53.2613 55.3198 50.4253Q52.6596 47.5894 52.6596 42.4097Q52.6596 37.3004 55.6245 34.2418Q58.5893 31.1832 63.3003 31.1832Q68.9253 31.1832 72.8159 33.4332L72.8159 26.3316Q68.7378 24.855 63.394 24.855Q54.9096 24.855 49.8003 29.8472Q44.6909 34.8394 44.6909 42.7613Q44.6909 50.6363 49.3667 55.1246Q54.0425 59.6128 62.1518 59.6128Z" />
            </g>
          </g>
          <g id="GroupGen" fill="#354580" transform="translate(146.5 9.799988)">
            <path d="M28.793 74.0859Q39.7617 74.0859 47.1445 69.832L47.1445 44.4844L25.6992 44.4844L25.6992 53.5547L35.7891 53.5547L35.7891 63.3984Q33.3984 64.5586 29.3203 64.5586Q22.5352 64.5586 18.5449 60.3047Q14.5547 56.0508 14.5547 48.2813Q14.5547 40.6172 19.002 36.0293Q23.4492 31.4414 30.5156 31.4414Q38.9531 31.4414 44.7891 34.8164L44.7891 24.1641Q38.6719 21.9492 30.6563 21.9492Q17.9297 21.9492 10.2656 29.4375Q2.60156 36.9258 2.60156 48.8086Q2.60156 60.6211 9.61523 67.3535Q16.6289 74.0859 28.793 74.0859ZM250.855 74.0859Q261.824 74.0859 269.207 69.832L269.207 44.4844L247.762 44.4844L247.762 53.5547L257.852 53.5547L257.852 63.3984Q255.461 64.5586 251.383 64.5586Q244.598 64.5586 240.607 60.3047Q236.617 56.0508 236.617 48.2813Q236.617 40.6172 241.064 36.0293Q245.512 31.4414 252.578 31.4414Q261.016 31.4414 266.852 34.8164L266.852 24.1641Q260.734 21.9492 252.719 21.9492Q239.992 21.9492 232.328 29.4375Q224.664 36.9258 224.664 48.8086Q224.664 60.6211 231.678 67.3535Q238.691 74.0859 250.855 74.0859ZM105.672 74.0859Q96.6719 74.0859 91.5215 69.041Q86.3711 63.9961 86.3711 55.3477Q86.3711 46.418 91.7148 41.373Q97.0586 36.3281 106.164 36.3281Q115.129 36.3281 120.227 41.373Q125.324 46.418 125.324 54.7148Q125.324 63.6797 120.068 68.8828Q114.813 74.0859 105.672 74.0859ZM191.34 69.0234L191.199 69.0234L191.199 89.7656L180.09 89.7656L180.09 37.207L191.199 37.207L191.199 42.6211L191.34 42.6211Q195.453 36.3281 202.906 36.3281Q209.902 36.3281 213.717 41.127Q217.531 45.9258 217.531 54.1875Q217.531 63.1875 213.084 68.6367Q208.637 74.0859 201.254 74.0859Q194.75 74.0859 191.34 69.0234ZM312.27 58.3711L288.785 58.3711Q289.348 66.2109 298.664 66.2109Q304.605 66.2109 309.105 63.3984L309.105 71.4141Q304.113 74.0859 296.133 74.0859Q287.414 74.0859 282.598 69.252Q277.781 64.418 277.781 55.7695Q277.781 46.8047 282.984 41.5664Q288.188 36.3281 295.781 36.3281Q303.656 36.3281 307.963 41.0039Q312.27 45.6797 312.27 53.6953L312.27 58.3711ZM344.574 73.207L355.648 73.207L355.648 51.1641Q355.648 36.3281 343.695 36.3281Q336.102 36.3281 332.129 42.9023L331.988 42.9023L331.988 37.207L320.879 37.207L320.879 73.207L331.988 73.207L331.988 52.6758Q331.988 49.2656 333.852 47.0508Q335.715 44.8359 338.598 44.8359Q344.574 44.8359 344.574 53.2031L344.574 73.207ZM76.6719 46.1367Q79.3438 46.1367 81.3477 47.2266L81.3477 36.9961Q80.3633 36.5742 78.6055 36.5742Q71.75 36.5742 69.1133 43.8867L68.9727 43.8867L68.9727 37.207L57.8633 37.207L57.8633 73.207L68.9727 73.207L68.9727 56.0156Q68.9727 51.4453 71.0117 48.791Q73.0508 46.1367 76.6719 46.1367ZM157.664 73.207L168.738 73.207L168.738 37.207L157.664 37.207L157.664 57.8086Q157.664 61.3945 155.871 63.4863Q154.078 65.5781 151.09 65.5781Q145.043 65.5781 145.043 57.9492L145.043 37.207L133.969 37.207L133.969 58.9336Q133.969 74.0859 146.484 74.0859Q153.375 74.0859 157.488 67.7227L157.664 67.7227L157.664 73.207ZM301.969 51.5508Q301.969 43.8164 295.711 43.8164Q293.039 43.8164 291.088 46.0313Q289.137 48.2461 288.715 51.5508L301.969 51.5508ZM105.953 44.8359Q102.016 44.8359 99.8359 47.543Q97.6563 50.25 97.6563 55.207Q97.6563 65.5781 106.023 65.5781Q114.004 65.5781 114.004 54.9258Q114.004 44.8359 105.953 44.8359ZM191.023 54.2578L191.023 57.1406Q191.023 60.8672 192.992 63.2227Q194.961 65.5781 198.16 65.5781Q201.957 65.5781 204.049 62.6426Q206.141 59.707 206.141 54.3281Q206.141 44.8359 198.758 44.8359Q195.348 44.8359 193.186 47.4199Q191.023 50.0039 191.023 54.2578Z" />
          </g>
        </g>
      </g>
    </g>
  </g>
</svg>